# xmcd CD database file
#
# Track frame offsets:
#	150
#	11501
#	22115
#	35507
#	50521
#	63876
#	77482
#
# Disc length: 1267 seconds
#
# Revision: 0
# Processed by: cddbd v1.5.1PL0 Copyright (c) Steve Scherf et al.
# Submitted via: CD2WAV32(JP) R3.22
#
DISCID=4d04f107
DTITLE=片霧烈火 - 鐘は高く澄み渡りて
DYEAR=2000
DGENRE=Pop
TTITLE0=褪めた夜、銀髪の使者
TTITLE1=砂漠の墓標
TTITLE2=追憶のなかの風景
TTITLE3=空より来たりて、虚空へと還る
TTITLE4=鐘は高く澄み渡りて
TTITLE5=最後の最後に
TTITLE6=未来
EXTD=
EXTT0=
EXTT1=
EXTT2=
EXTT3=
EXTT4=
EXTT5=
EXTT6=
PLAYORDER=
